==========Enrique Iglesias n Usher Ft Lil Wayne - Dirty Dancer HD =================


Format                           : MPEG-4
Format profile                   : Base Media / Version 2
Codec ID                         : mp42
File size                        : 104 MiB
Duration                         : 4mn 16s
Overall bit rate                 : 3 411 Kbps
Encoded date                     : UTC 2011-06-20 17:48:12
Tagged date                      : UTC 2011-06-20 17:48:12
gsst                             : 0
gstd                             : 256120
gssd                             : BCA9FD845HH1308944933906544
gshh                             :

Video
ID                               : 1
Format                           : AVC
Format/Info                      : Advanced Video Codec
Format profile                   : High@L4.0
Format settings, CABAC           : Yes
Format settings, ReFrames        : 1 frame
Codec ID                         : avc1
Codec ID/Info                    : Advanced Video Coding
Duration                         : 4mn 16s
Bit rate mode                    : Variable
Bit rate                         : 3 261 Kbps
Maximum bit rate                 : 8 287 Kbps
Width                            : 1 920 pixels
Height                           : 1 080 pixels
Display aspect ratio             : 16:9
Frame rate mode                  : Constant
Frame rate                       : 25.000 fps
Color space                      : YUV
Chroma subsampling               : 4:2:0
Bit depth                        : 8 bits
Scan type                        : Progressive
Bits/(Pixel*Frame)               : 0.063
Stream size                      : 99.6 MiB (96%)
Tagged date                      : UTC 2011-06-20 17:48:16

Audio
ID                               : 2
Format                           : AAC
Format/Info                      : Advanced Audio Codec
Format version                   : Version 4
Format profile                   : LC
Format settings, SBR             : No
Codec ID                         : 40
Duration                         : 4mn 16s
Bit rate mode                    : Variable
Bit rate                         : 144 Kbps
Maximum bit rate                 : 219 Kbps
Channel(s)                       : 2 channels
Channel positions                : Front: L R
Sampling rate                    : 44.1 KHz
Stream size                      : 4.42 MiB (4%)
Title                            : IsoMedia File Produced by Google, 5-11-2011
Encoded date                     : UTC 2011-06-20 17:48:14
Tagged date                      : UTC 2011-06-20 17:48:16

========================= SCREEN SHOTS ====================================

                          http://bayimg.com/IAIPlaado
                          http://bayimg.com/iaipmaadO
                          http://bayimg.com/IAiPNaado
==========================================================================================================================================================================
 ##  #  # # # # ### ### ###     ##  #   ###  #   ## ### ===========================
#   # # ### ### #   # #  #      # # #   #   # # #   # =============================  
#   # # ### ### ##  # #  #      ##  #   ##  ###  #  ##=============================  
#   # # # # # # #   # #  #      #   #   #   # #   # # =============================  
 ##  #  # # # # ### # #  #      #   ### ### # # ##  ###===========================
======================================================================================================================================================================                                                                                     